<?xml version="1.0" standalone="no"?>
<!DOCTYPE svg PUBLIC "-//W3C//DTD SVG 20010904//EN"
 "http://www.w3.org/TR/2001/REC-SVG-20010904/DTD/svg10.dtd">
<svg version="1.0" xmlns="http://www.w3.org/2000/svg"
 width="1840.000000pt" height="1474.000000pt" viewBox="0 0 1840.000000 1474.000000"
 preserveAspectRatio="xMidYMid meet">

<g transform="translate(0.000000,1474.000000) scale(0.100000,-0.100000)"
fill="#000000" stroke="none">
<path d="M10680 14649 c-542 -36 -1031 -141 -1525 -327 -289 -109 -660 -302
-950 -495 -623 -415 -1121 -911 -1532 -1527 -144 -215 -268 -427 -352 -603
l-42 -87 -42 6 c-23 3 -55 9 -72 14 -16 4 -66 13 -110 20 -44 6 -107 15 -140
20 -33 5 -139 14 -236 21 -262 18 -556 -7 -809 -67 -602 -144 -1185 -563
-1607 -1154 -112 -158 -217 -347 -323 -585 -54 -121 -144 -423 -170 -570 -7
-38 -16 -83 -21 -99 -5 -16 -9 -42 -9 -57 0 -30 -18 -115 -29 -137 -3 -7 -51
-32 -106 -56 -730 -314 -1379 -884 -1799 -1580 -157 -260 -329 -676 -395 -958
-23 -98 -31 -134 -41 -193 -6 -33 -15 -82 -20 -110 -33 -181 -50 -394 -50
-628 0 -512 88 -987 262 -1427 308 -777 856 -1436 1528 -1840 499 -300 1043
-471 1651 -520 179 -14 2157 -14 2174 0 17 14 133 210 356 605 16 28 29 53 29
56 0 14 -432 22 -1415 24 -881 3 -1074 6 -1199 20 -455 49 -890 200 -1284 446
-321 199 -626 486 -842 789 -257 360 -443 838 -504 1290 -75 561 -32 1101 126
1565 219 645 684 1226 1272 1589 213 132 412 223 673 305 178 57 228 86 266
153 37 64 46 127 45 298 -1 170 10 262 48 419 100 408 349 845 654 1151 261
260 537 418 880 504 395 98 866 68 1310 -84 162 -55 268 -72 327 -49 34 13 88
62 118 109 12 19 66 134 119 255 289 649 579 1079 1033 1526 342 338 693 588
1133 809 602 301 1235 450 1918 450 445 0 752 -37 1157 -141 1114 -284 2062
-975 2673 -1947 207 -329 394 -750 492 -1107 32 -116 40 -149 55 -220 10 -44
21 -98 26 -120 31 -140 60 -437 65 -665 8 -306 -5 -435 -71 -735 -43 -198 10
-367 144 -454 32 -20 98 -52 147 -71 408 -154 653 -296 944 -546 520 -447 892
-1132 999 -1839 6 -38 15 -99 21 -135 27 -169 22 -680 -10 -925 -23 -183 -73
-402 -130 -575 -193 -584 -544 -1069 -1055 -1461 -350 -268 -841 -478 -1320
-566 l-140 -25 -970 -8 c-924 -7 -1175 -14 -1175 -30 0 -7 85 -165 100 -185 4
-5 31 -55 60 -110 29 -55 77 -140 107 -189 30 -49 63 -107 75 -130 11 -23 26
-44 32 -48 6 -4 373 -8 816 -8 808 0 926 4 1168 39 513 75 1052 286 1497 585
470 316 840 706 1140 1201 146 240 319 636 382 875 44 168 71 283 83 350 6 41
14 82 17 90 2 8 16 112 29 230 45 395 32 825 -36 1200 -133 732 -478 1412
-985 1940 -324 338 -574 528 -1005 765 l-165 91 2 64 c12 335 14 714 3 835
-73 873 -309 1591 -758 2305 -95 150 -106 166 -246 352 -149 198 -233 295
-431 496 -377 385 -740 661 -1200 914 -402 222 -928 416 -1391 512 -456 95
-997 135 -1444 105z"/>
<path d="M5619 10276 c-2 -2 -44 -9 -94 -15 -151 -18 -311 -63 -421 -119 -198
-100 -284 -235 -284 -445 0 -220 109 -349 365 -430 135 -43 372 -89 630 -122
28 -4 106 -18 175 -32 69 -14 137 -28 151 -30 46 -8 173 -77 192 -104 30 -41
33 -99 8 -147 -53 -103 -215 -149 -486 -138 -262 10 -330 52 -381 234 -3 10
-77 12 -346 10 l-343 -3 -4 -25 c-6 -45 21 -163 55 -238 24 -53 50 -90 92
-131 115 -113 231 -159 522 -211 167 -29 491 -39 682 -20 422 42 681 143 803
314 57 81 73 119 91 224 27 154 -10 293 -107 396 -114 122 -297 187 -709 251
-426 66 -436 68 -527 91 -92 23 -167 57 -187 85 -24 35 -21 119 6 154 51 65
196 99 398 93 213 -7 299 -47 342 -160 l24 -63 314 -3 c173 -2 325 0 338 3 27
7 29 40 7 129 -35 149 -115 243 -270 319 -125 62 -248 94 -490 126 -74 10
-536 16 -546 7z"/>
<path d="M7290 9300 l0 -940 1000 0 1000 0 -2 198 -3 197 -682 0 c-375 0 -685
3 -689 7 -4 5 -7 90 -6 190 l2 183 592 5 593 5 3 155 c1 85 1 164 -2 175 -5
20 -12 20 -577 17 -314 -2 -582 -1 -594 2 -21 5 -21 8 -18 173 2 93 5 173 7
180 4 8 178 12 678 13 370 0 676 4 681 9 4 4 6 88 5 187 l-3 179 -992 3 -993
2 0 -940z"/>
<path d="M9540 9300 l0 -940 300 0 300 0 0 655 c0 360 3 655 8 655 4 0 13 -9
20 -20 11 -17 253 -345 590 -800 241 -324 356 -475 366 -482 6 -4 199 -8 429
-8 l417 0 0 940 0 940 -300 0 -300 0 0 -657 c0 -362 -3 -659 -8 -661 -5 -1
-24 19 -42 45 -19 27 -120 163 -224 303 -358 482 -481 648 -600 809 l-119 161
-418 0 -419 0 0 -940z"/>
<path d="M13064 10133 c-31 -60 -77 -146 -102 -193 -25 -47 -62 -116 -82 -155
-21 -38 -77 -144 -125 -235 -48 -91 -118 -221 -155 -290 -37 -69 -129 -240
-203 -380 -75 -140 -167 -313 -206 -385 l-69 -130 316 -3 c174 -1 322 0 328 2
6 2 53 88 104 190 l93 186 540 -2 541 -3 93 -187 93 -188 325 0 c179 0 325 2
325 5 0 9 -57 121 -175 340 -62 116 -223 417 -358 670 -134 253 -293 551 -352
663 l-109 202 -382 0 -383 0 -57 -107z m488 -376 c21 -45 94 -200 163 -344 69
-145 125 -267 125 -273 0 -7 -116 -10 -340 -10 -223 0 -340 3 -340 10 0 6 4
18 10 28 10 17 170 350 270 560 29 61 58 112 64 112 6 0 28 -38 48 -83z"/>
<path d="M9420 7700 c-332 -42 -642 -267 -791 -576 -52 -107 -77 -194 -94
-328 -23 -181 10 -387 89 -553 81 -171 217 -326 381 -435 146 -98 386 -168
570 -168 569 1 1045 467 1045 1023 0 164 -39 337 -106 470 -102 199 -279 374
-479 471 -82 40 -119 53 -241 85 -55 15 -292 22 -374 11z"/>
<path d="M6162 5003 l3 -378 1083 -3 c595 -1 1082 -4 1082 -7 0 -7 -56 -102
-545 -920 -259 -434 -515 -862 -567 -950 -154 -259 -567 -952 -625 -1049 -29
-49 -53 -97 -53 -107 0 -11 24 -31 68 -55 125 -70 277 -165 404 -255 69 -49
131 -89 136 -89 12 0 148 203 257 385 123 203 253 418 505 835 128 212 325
538 438 725 392 651 735 1220 768 1275 170 284 218 424 194 561 -36 200 -188
350 -398 394 -63 13 -255 15 -1413 15 l-1339 0 2 -377z"/>
<path d="M10202 5360 c-241 -63 -391 -254 -380 -483 6 -127 62 -247 280 -602
142 -232 195 -317 251 -410 59 -97 304 -499 677 -1110 351 -575 513 -841 570
-935 283 -473 375 -610 408 -610 24 0 76 33 247 155 94 68 208 146 254 174 46
28 86 53 89 56 6 6 -178 314 -1316 2200 -130 215 -269 446 -311 515 -41 69
-99 166 -128 215 l-54 90 1068 5 1068 5 0 375 0 375 -1325 2 c-1277 2 -1328 1
-1398 -17z"/>
<path d="M9465 3836 c-77 -36 -88 -51 -253 -333 -38 -65 -410 -685 -827 -1378
-417 -693 -780 -1299 -807 -1346 -56 -100 -72 -144 -55 -157 7 -6 111 -69 232
-142 121 -73 246 -150 277 -172 31 -21 62 -38 67 -38 24 0 321 466 673 1055
421 705 616 1032 703 1182 49 84 93 153 99 153 19 0 119 -154 269 -415 413
-721 1175 -1975 1200 -1975 13 0 218 126 427 262 91 59 169 109 174 111 14 5
-26 79 -162 302 -178 294 -607 1005 -897 1485 -583 967 -759 1257 -786 1297
-85 123 -214 166 -334 109z"/>
</g>
</svg>
